# xmcd
#
# Track frame offsets: 
#        150
#        22716
#        42977
#        62589
#        84004
#        107771
#        127000
#        142147
#        164135
#        178554
#        192321
#        216578
#        235679
#        253908
#
# Disc length: 3839 seconds
#
# Revision: 2
# Processed by: cddbd v1.5.2PL0 Copyright (c) Steve Scherf et al.
# Submitted via: ExactAudioCopyFreeDBPlugin 1.0
#
DISCID=c80efd0e
DTITLE=Ilse DeLange - Live
DYEAR=2007
DGENRE=Country
TTITLE0=Don't You Let Go Of Me
TTITLE1=Reach For The Light
TTITLE2=The Lonely One
TTITLE3=World Of Hurt
TTITLE4=Livin' On Love
TTITLE5=I Love You
TTITLE6=Tapdancing On The Highwire
TTITLE7=Flying Blind
TTITLE8=Sister Golden Hair
TTITLE9=I'd Be Yours
TTITLE10=Ride The Wind To Me
TTITLE11=I Will Always Love You
TTITLE12=The Great Escape
TTITLE13=I'm Not So Tough
EXTD=
EXTT0=
EXTT1=
EXTT2=
EXTT3=
EXTT4=
EXTT5=
EXTT6=
EXTT7=
EXTT8=
EXTT9=
EXTT10=
EXTT11=
EXTT12=
EXTT13=
PLAYORDER=
